<?xml version="1.0" standalone="no"?>
<!DOCTYPE svg PUBLIC "-//W3C//DTD SVG 20010904//EN"
 "http://www.w3.org/TR/2001/REC-SVG-20010904/DTD/svg10.dtd">
<svg version="1.0" xmlns="http://www.w3.org/2000/svg"
 width="260.000000pt" height="260.000000pt" viewBox="0 0 260.000000 260.000000"
 preserveAspectRatio="xMidYMid meet">
<metadata>
Created by potrace 1.14, written by Peter Selinger 2001-2017
</metadata>
<g transform="translate(0.000000,260.000000) scale(0.100000,-0.100000)"
fill="#000000" stroke="none">
<path d="M1 2420 c0 -99 3 -180 7 -181 31 -4 2576 -3 2583 2 5 3 8 83 7 180
l-3 174 -1298 2 -1297 2 1 -179z"/>
<path d="M3 1858 l2 -181 1295 0 1295 0 2 182 3 181 -1300 0 -1300 0 3 -182z"/>
<path d="M27 1482 l-28 -3 1 -180 2 -179 26 -1 c31 0 2454 0 2524 1 l48 0 -1
180 0 180 -37 0 c-189 3 -2514 4 -2535 2z"/>
<path d="M10 922 c-6 -2 -10 -71 -9 -183 l0 -179 1299 0 1300 0 -1 180 c0 134
-3 180 -12 181 -40 3 -2569 3 -2577 1z"/>
<path d="M4 361 c-2 -2 -4 -84 -3 -182 l0 -178 1297 2 1297 2 2 178 c2 97 0
177 -5 178 -22 3 -2584 3 -2588 0z"/>
</g>
</svg>
