<?xml version="1.0" encoding="utf-8"?>
<!-- Generator: Adobe Illustrator 24.1.2, SVG Export Plug-In . SVG Version: 6.00 Build 0)  -->
<svg version="1.1" id="Ebene_2" xmlns="http://www.w3.org/2000/svg" xmlns:xlink="http://www.w3.org/1999/xlink" x="0px" y="0px"
	 viewBox="0 0 40 40" style="enable-background:new 0 0 40 40;" xml:space="preserve">
<style type="text/css">
	.st0{fill:#FFFFFF;}
</style>
<path class="st0" d="M20,5.8c-8.1,0-14.6,6.5-14.6,14.6c0,6.5,4.2,11.9,10,13.9c0.7,0.1,1-0.3,1-0.7c0-0.3,0-1.3,0-2.5
	c-4.1,0.9-4.9-2-4.9-2c-0.7-1.7-1.6-2.1-1.6-2.1C8.5,26,9.9,26,9.9,26c1.5,0.1,2.2,1.5,2.2,1.5c1.3,2.2,3.4,1.6,4.3,1.2
	c0.1-0.9,0.5-1.6,0.9-2c-3.2-0.4-6.6-1.6-6.6-7.2c0-1.6,0.6-2.9,1.5-3.9c-0.2-0.4-0.7-1.9,0.1-3.9c0,0,1.2-0.4,4,1.5
	c1.2-0.3,2.4-0.5,3.6-0.5c1.2,0,2.5,0.2,3.6,0.5c2.8-1.9,4-1.5,4-1.5c0.8,2,0.3,3.5,0.1,3.9c0.9,1,1.5,2.3,1.5,3.9
	c0,5.6-3.4,6.8-6.7,7.2c0.5,0.4,1,1.3,1,2.7c0,2,0,3.5,0,4c0,0.4,0.3,0.8,1,0.7c5.8-1.9,10-7.4,10-13.8C34.6,12.3,28.1,5.8,20,5.8"
	/>
</svg>
