<?xml version="1.0" encoding="utf-8"?>
<!-- Generator: Adobe Illustrator 24.1.2, SVG Export Plug-In . SVG Version: 6.00 Build 0)  -->
<svg version="1.1" xmlns="http://www.w3.org/2000/svg" xmlns:xlink="http://www.w3.org/1999/xlink" x="0px" y="0px"
	 viewBox="0 0 40 40" style="enable-background:new 0 0 40 40;" xml:space="preserve">
<style type="text/css">
	.st0{display:none;}
	.st1{display:inline;}
	.st2{fill:#E6E6E6;}
</style>
<g id="Ebene_1" class="st0">
	<g id="XMLID_2282_" class="st1">
		<path id="XMLID_2283_" class="st2" d="M29.18,8.74c-3.73-0.12-6.25,1.98-7.58,6.32c0.68-0.29,1.35-0.44,1.99-0.44
			c1.37,0,1.97,0.77,1.81,2.31c-0.08,0.93-0.68,2.28-1.81,4.06c-1.13,1.78-1.97,2.67-2.54,2.67c-0.73,0-1.39-1.37-1.99-4.11
			c-0.2-0.81-0.57-2.86-1.09-6.17c-0.48-3.06-1.77-4.5-3.86-4.29c-0.89,0.08-2.22,0.89-3.99,2.42c-1.29,1.17-2.6,2.34-3.93,3.5
			l1.27,1.63c1.21-0.84,1.91-1.27,2.11-1.27c0.92,0,1.79,1.45,2.59,4.35c0.72,2.65,1.45,5.31,2.17,7.96
			c1.08,2.9,2.41,4.34,3.98,4.34c2.53,0,5.62-2.38,9.28-7.13c3.54-4.55,5.37-8.14,5.49-10.76C33.25,10.62,31.94,8.83,29.18,8.74z"/>
	</g>
</g>
<g id="Ebene_2" class="st0">
	<g id="XMLID_2392_" class="st1">
		<g id="XMLID_2393_">
			<path id="XMLID_2398_" class="st2" d="M19.92,9.24c3.47,0,3.88,0.01,5.25,0.08c1.27,0.06,1.96,0.27,2.41,0.45
				c0.61,0.24,1.04,0.52,1.49,0.97c0.46,0.46,0.74,0.89,0.97,1.49c0.18,0.46,0.39,1.15,0.45,2.41c0.06,1.37,0.08,1.78,0.08,5.25
				c0,3.47-0.01,3.88-0.08,5.25c-0.06,1.27-0.27,1.96-0.45,2.41c-0.24,0.61-0.52,1.04-0.97,1.5c-0.45,0.45-0.89,0.74-1.49,0.97
				c-0.46,0.18-1.15,0.39-2.41,0.45c-1.37,0.06-1.78,0.08-5.25,0.08c-3.47,0-3.88-0.01-5.25-0.08c-1.27-0.06-1.96-0.27-2.41-0.45
				c-0.61-0.24-1.04-0.52-1.5-0.97c-0.45-0.46-0.74-0.89-0.97-1.5c-0.18-0.46-0.39-1.15-0.45-2.41c-0.06-1.37-0.08-1.78-0.08-5.25
				c0-3.47,0.01-3.88,0.08-5.25c0.06-1.27,0.27-1.96,0.45-2.41c0.24-0.61,0.52-1.04,0.97-1.49c0.46-0.46,0.89-0.74,1.5-0.97
				c0.46-0.18,1.15-0.39,2.41-0.45C16.03,9.25,16.45,9.24,19.92,9.24 M19.92,6.9c-3.53,0-3.97,0.02-5.36,0.08
				c-1.38,0.06-2.33,0.28-3.16,0.6c-0.86,0.33-1.58,0.78-2.3,1.5c-0.72,0.72-1.17,1.45-1.5,2.3c-0.32,0.83-0.54,1.77-0.6,3.16
				c-0.06,1.39-0.08,1.83-0.08,5.36c0,3.53,0.01,3.97,0.08,5.36c0.06,1.38,0.28,2.33,0.6,3.16c0.33,0.85,0.78,1.58,1.5,2.3
				c0.72,0.72,1.45,1.17,2.3,1.5c0.83,0.32,1.77,0.54,3.16,0.6c1.39,0.06,1.83,0.08,5.36,0.08c3.53,0,3.97-0.01,5.36-0.08
				c1.38-0.06,2.33-0.28,3.16-0.6c0.86-0.33,1.58-0.78,2.3-1.5c0.72-0.72,1.17-1.45,1.5-2.3c0.32-0.83,0.54-1.77,0.6-3.16
				c0.06-1.39,0.08-1.83,0.08-5.36c0-3.53-0.01-3.97-0.08-5.36c-0.06-1.38-0.28-2.33-0.6-3.16c-0.33-0.85-0.78-1.58-1.5-2.3
				c-0.72-0.72-1.45-1.17-2.3-1.5c-0.83-0.32-1.77-0.54-3.16-0.6C23.89,6.91,23.45,6.9,19.92,6.9"/>
			<path id="XMLID_2395_" class="st2" d="M19.92,13.22c-3.69,0-6.68,2.99-6.68,6.68s2.99,6.68,6.68,6.68c3.69,0,6.68-2.99,6.68-6.68
				S23.6,13.22,19.92,13.22 M19.92,24.23c-2.39,0-4.33-1.94-4.33-4.33c0-2.39,1.94-4.33,4.33-4.33c2.39,0,4.33,1.94,4.33,4.33
				C24.25,22.29,22.31,24.23,19.92,24.23"/>
			<path id="XMLID_2394_" class="st2" d="M28.42,12.96c0,0.86-0.7,1.56-1.56,1.56c-0.86,0-1.56-0.7-1.56-1.56s0.7-1.56,1.56-1.56
				C27.72,11.4,28.42,12.1,28.42,12.96"/>
		</g>
	</g>
</g>
<g id="Ebene_3" class="st0">
	<g class="st1">
		<path class="st2" d="M9.14,10.56l8.96,10.16c0.51,0.58,1.24,0.91,2.01,0.91c0.77,0,1.5-0.33,2.01-0.91l8.8-9.99
			c0.07-0.08,0.16-0.15,0.25-0.2c-0.37-0.16-0.78-0.26-1.22-0.26H10.27c-0.41,0-0.81,0.08-1.17,0.23
			C9.11,10.53,9.13,10.54,9.14,10.56z"/>
		<path class="st2" d="M32.53,11.71c-0.04,0.1-0.09,0.2-0.17,0.29l-8.8,9.99c-0.87,0.99-2.13,1.56-3.45,1.56
			c-1.32,0-2.57-0.57-3.45-1.56L7.71,11.82c-0.02-0.02-0.03-0.04-0.05-0.07c-0.28,0.46-0.44,0.99-0.44,1.57v13.75
			c0,1.68,1.36,3.04,3.04,3.04h19.69c1.68,0,3.04-1.36,3.04-3.04V13.32C33,12.73,32.83,12.18,32.53,11.71z"/>
	</g>
</g>
<g id="Ebene_4">
	<path class="st2" d="M29.56,9.4h-19.2c-2.15,0-3.9,1.75-3.9,3.9v13.41c0,2.15,1.75,3.9,3.9,3.9h19.2c2.15,0,3.9-1.75,3.9-3.9V13.3
		C33.46,11.15,31.71,9.4,29.56,9.4z M29.56,11.26c0.16,0,0.31,0.02,0.46,0.06l-8.1,9.19c-0.5,0.56-1.21,0.89-1.96,0.89
		c-0.75,0-1.47-0.32-1.96-0.89l-8.1-9.19c0.15-0.03,0.3-0.06,0.46-0.06H29.56z M31.59,26.71c0,1.12-0.91,2.03-2.03,2.03h-19.2
		c-1.12,0-2.03-0.91-2.03-2.03V13.3c0-0.27,0.05-0.53,0.15-0.77l8.12,9.22c0.85,0.96,2.08,1.52,3.36,1.52
		c1.29,0,2.51-0.55,3.36-1.52l8.12-9.22c0.1,0.24,0.15,0.5,0.15,0.77V26.71z"/>
	<g>
	</g>
	<g>
	</g>
	<g>
	</g>
	<g>
	</g>
	<g>
	</g>
	<g>
	</g>
	<g>
	</g>
	<g>
	</g>
	<g>
	</g>
	<g>
	</g>
	<g>
	</g>
	<g>
	</g>
	<g>
	</g>
	<g>
	</g>
	<g>
	</g>
</g>
</svg>
